<svg width="16" height="17" viewBox="0 0 16 17" fill="none" xmlns="http://www.w3.org/2000/svg">
<path d="M13.8513 5.06857H5.80558M4.34272 5.06857H2.14844M13.8513 12.3829H5.80558M4.34272 12.3829H2.14844M10.1942 8.72571H2.14844M13.8513 8.72571H11.657M5.07415 3.60571C5.26814 3.60571 5.45418 3.68277 5.59135 3.81994C5.72852 3.95711 5.80558 4.14315 5.80558 4.33714V5.8C5.80558 5.99399 5.72852 6.18003 5.59135 6.3172C5.45418 6.45437 5.26814 6.53143 5.07415 6.53143C4.88017 6.53143 4.69412 6.45437 4.55695 6.3172C4.41978 6.18003 4.34272 5.99399 4.34272 5.8V4.33714C4.34272 4.14315 4.41978 3.95711 4.55695 3.81994C4.69412 3.68277 4.88017 3.60571 5.07415 3.60571V3.60571ZM5.07415 10.92C5.26814 10.92 5.45418 10.9971 5.59135 11.1342C5.72852 11.2714 5.80558 11.4574 5.80558 11.6514V13.1143C5.80558 13.3083 5.72852 13.4943 5.59135 13.6315C5.45418 13.7687 5.26814 13.8457 5.07415 13.8457C4.88017 13.8457 4.69412 13.7687 4.55695 13.6315C4.41978 13.4943 4.34272 13.3083 4.34272 13.1143V11.6514C4.34272 11.4574 4.41978 11.2714 4.55695 11.1342C4.69412 10.9971 4.88017 10.92 5.07415 10.92ZM10.9256 7.26286C11.1196 7.26286 11.3056 7.33992 11.4428 7.47709C11.5799 7.61426 11.657 7.8003 11.657 7.99428V9.45714C11.657 9.65113 11.5799 9.83717 11.4428 9.97434C11.3056 10.1115 11.1196 10.1886 10.9256 10.1886C10.7316 10.1886 10.5456 10.1115 10.4084 9.97434C10.2712 9.83717 10.1942 9.65113 10.1942 9.45714V7.99428C10.1942 7.8003 10.2712 7.61426 10.4084 7.47709C10.5456 7.33992 10.7316 7.26286 10.9256 7.26286V7.26286Z" stroke="white" stroke-width="0.64" stroke-linecap="round" stroke-linejoin="round"/>
</svg>
