<svg width="73" height="47" viewBox="0 0 73 47" fill="none" xmlns="http://www.w3.org/2000/svg">
<path d="M58.8102 31.3635C58.1518 30.9441 56.0596 29.6067 55.4201 29.1672C54.0127 28.2008 52.6665 27.1604 51.3744 26.0637C50.4123 25.2464 49.5115 24.3728 48.7654 23.3741C48.2165 22.6375 47.7478 21.8606 47.4777 20.999C47.0134 19.5272 47.2456 18.1751 48.3727 17.0164C49.5056 15.8538 50.9496 15.3282 52.6373 15.3995C54.6551 15.4855 55.4303 17.1535 55.1777 18.4022C55.1062 18.7477 54.9938 19.0823 54.893 19.4452C54.9485 19.413 54.9996 19.3915 55.042 19.3619C55.5033 19.0232 55.9428 18.6603 56.3049 18.2261C57.8641 16.3538 58.5591 14.261 58.1167 11.9102C57.7999 10.2152 56.8319 8.87783 55.3135 7.87916C54.6638 7.45173 53.9484 7.15737 53.2111 6.91946C53.1921 6.89258 53.1761 6.87511 53.1659 6.8536C52.6403 5.6224 51.7321 4.67748 50.551 3.94091C49.5086 3.29036 48.3654 2.84143 47.1667 2.49599C45.0234 1.8777 42.8145 1.64651 40.5807 1.6156C39.6506 1.6035 38.7206 1.67474 37.7935 1.77286C36.5861 1.90324 35.4035 2.12905 34.2326 2.42341C31.4016 3.13982 28.7824 4.29576 26.3194 5.74605C24.7338 6.6829 23.1848 7.67217 21.624 8.65337C20.4546 9.38725 19.2676 10.0889 17.9813 10.6453C17.8937 10.6843 17.8105 10.726 17.6587 10.7945C19.5888 10.7851 21.4109 10.5029 23.3001 10.1561C23.1775 10.2811 23.1191 10.3469 23.0519 10.4061C21.9087 11.4437 20.8634 12.5647 19.8195 13.6817C18.4792 15.1145 17.1783 16.5742 15.7344 17.921C14.7401 18.8511 13.6977 19.7289 12.5501 20.495C12.3691 20.6173 12.1953 20.7477 11.972 20.9049C12.1004 20.8902 12.1691 20.8848 12.2362 20.8727C13.3823 20.6469 14.4773 20.2867 15.546 19.8525C16.7885 19.3498 18.0003 18.7907 19.1844 18.1885C19.2457 18.1589 19.3172 18.1441 19.4194 18.1079C18.9931 18.7651 18.5931 19.3767 18.193 19.9923C17.1243 21.6415 16.0366 23.28 14.6963 24.7626C13.9181 25.6214 13.0786 26.4266 12.1515 27.1551C11.8581 27.3836 11.5602 27.6094 11.2668 27.8352C12.5384 27.639 13.6977 27.1779 14.8248 26.6524C15.9548 26.1295 17.0396 25.5314 18.1405 24.8593C17.7375 26.2922 17.5813 27.6981 17.682 29.1309L20.31 28.6551C21.5525 26.9521 23.2067 25.6645 25.0886 24.5058C24.4915 25.6497 24.2885 27.4723 24.4681 28.6175L26.6318 27.5153C26.6318 27.4978 26.6289 27.483 26.6318 27.4683C26.626 27.3016 26.6318 27.1389 26.645 26.9776C26.7515 25.5919 27.3355 24.4064 28.4043 23.4225C29.0437 22.8337 29.7577 22.3499 30.587 22.0138C30.6906 21.9722 30.787 21.9184 30.933 21.8472C30.4804 23.0838 30.5417 24.2693 30.9593 25.4386C31.314 25.3674 31.682 25.3042 32.0674 25.2572C32.5258 25.198 33.0033 25.1564 33.4851 25.1322L33.8369 25.1295C34.4253 24.3472 35.113 23.6671 35.8941 23.0582C35.6517 23.733 35.4999 24.4198 35.4298 25.1241C36.0663 25.151 36.5277 25.1954 36.7438 25.2222C36.554 23.7088 36.8533 22.2491 37.5278 20.7719C35.8357 21.741 34.5158 22.9628 33.3726 24.366C33.3142 21.6617 34.6443 19.5447 36.6562 17.7046C35.4035 18.2154 34.2705 18.8968 33.1595 19.6133C34.1187 17.5527 35.5977 15.9129 37.7994 14.7745C37.6796 14.7718 37.6446 14.7597 37.6125 14.7691C37.1278 14.9089 36.6445 15.0392 36.1656 15.1911C34.9845 15.5661 33.8048 15.9398 32.6295 16.3296C30.4921 17.0406 28.3517 17.7449 26.223 18.4788C24.763 18.9842 23.3527 19.585 22.0518 20.3875C22.0124 20.4117 21.9686 20.4318 21.8708 20.4802C22.4971 19.1132 23.2563 17.8941 24.2885 16.8323C25.7514 15.3282 27.6436 14.4626 29.6642 13.7704C28.4597 13.5446 27.2465 13.5594 25.9646 13.5715C27.2012 12.644 28.5415 12.0056 29.9168 11.4128C28.3342 11.3833 26.8114 11.6655 25.2638 12.1682C26.8581 10.5754 28.6773 9.40069 30.7753 8.58616C29.3971 8.44638 28.0305 8.60632 26.6172 8.67891C27.9444 7.72459 29.2978 6.89796 30.7344 6.19096C32.9843 5.08206 35.367 4.31592 37.8767 3.88715C39.0491 3.68822 40.2303 3.58069 41.4216 3.55381C42.9488 3.52155 44.4599 3.66402 45.9549 3.9436C46.7842 4.09817 47.6076 4.285 48.3931 4.59146C48.6676 4.69899 48.9289 4.81727 49.1479 5.00814C49.6297 5.42481 49.5188 5.96514 49.1669 6.31327C48.8501 6.6251 48.4471 6.71785 48.0048 6.64661C47.2616 6.52429 46.5229 6.39123 45.7826 6.26085C44.3562 6.00547 42.9152 5.87106 41.4654 5.8388C40.2741 5.81192 39.0856 5.84149 37.8972 5.94901C36.6387 6.05923 35.3947 6.2259 34.1815 6.55252C33.3288 6.78102 32.4923 7.05253 31.6469 7.45845C32.044 7.42888 32.3828 7.402 32.7215 7.37243C33.6165 7.2985 34.51 7.28909 35.402 7.39259C36.4489 7.51087 37.1774 7.98938 37.4811 8.95042C37.5001 9.01225 37.5161 9.07811 37.5424 9.13725C37.649 9.40204 37.7366 9.67489 37.868 9.92759C38.6651 11.4411 40.2668 12.0916 41.8815 11.9128C42.5502 11.8389 43.1955 11.6601 43.8379 11.4881C44.054 11.429 44.2745 11.3725 44.4935 11.3161C44.4584 11.3873 44.4132 11.4196 44.365 11.4464C43.9255 11.679 43.4831 11.9075 43.0481 12.1481C42.0961 12.6803 41.2362 13.3161 40.4741 14.0688C39.6828 14.8443 39.0725 15.7274 38.6053 16.6965C38.5994 16.7086 38.6213 16.7328 38.6243 16.7409C39.4988 16.0809 40.4741 15.5755 41.5881 15.1858C41.3691 15.4022 41.2012 15.5809 41.0201 15.7476C39.3309 17.3202 38.4111 19.2046 38.3235 21.4197C38.2972 21.987 38.3527 22.5488 38.5075 23.0999C38.5337 23.198 38.4943 23.3203 38.6243 23.3942C38.8754 22.8055 39.1572 22.241 39.4798 21.6321C39.6536 23.1389 40.7646 24.7357 41.5399 25.0529C40.5617 22.6604 40.9515 20.4063 42.3984 18.2248C42.3984 18.2987 42.4042 18.3323 42.3954 18.3592C42.1312 19.0581 41.9662 19.7746 41.8917 20.5111C41.7822 21.6025 41.8947 22.655 42.3502 23.6738C42.702 24.4615 43.286 25.0825 44.0131 25.6053C43.4291 24.4642 42.9546 23.2921 42.8933 22.0179C42.8349 20.7275 43.1327 19.5004 43.6452 18.2839C43.6613 18.331 43.6773 18.3498 43.6773 18.3673C43.6715 18.421 43.6613 18.4748 43.6481 18.5272C43.4189 19.6267 43.4087 20.7275 43.6642 21.8243C44.0131 23.3378 44.8234 24.6335 45.879 25.8136C45.9827 25.9292 46.1111 25.983 46.2659 26.0193C46.8922 26.1685 47.5186 26.319 48.142 26.4803C49.7465 26.897 51.1131 27.6806 52.2621 28.7868C52.7337 29.2411 54.6069 30.6471 55.0712 31.1148C56.3954 31.2667 57.7254 31.4213 59.1329 31.5812C58.9781 31.4831 58.8934 31.4267 58.8073 31.3702L58.8102 31.3635ZM22.5672 22.5878C23.9454 21.6509 25.4828 21.0004 27.0903 20.4802C28.0816 20.1617 29.0832 19.8821 30.1095 19.6778C30.1417 19.6724 30.1738 19.6778 30.2482 19.6778C30.1928 19.7396 30.165 19.7813 30.1227 19.8122C28.689 20.9775 27.1779 22.0474 25.6084 23.0528C24.2068 23.9534 22.8606 24.9225 21.5846 25.9723C21.0517 26.4118 20.5611 26.897 20.0414 27.3688C20.0414 27.2559 20.0355 27.1457 20.0443 27.0354C20.1027 26.3432 20.2341 25.6618 20.4969 25.0058C20.8999 23.9924 21.6372 23.2195 22.5672 22.5891V22.5878ZM42.8977 10.3147C42.1195 10.8886 40.861 10.8591 40.0536 10.3241C39.3105 9.8335 38.9425 9.16816 39.0068 8.31196C39.0287 8.01223 39.1586 7.74475 39.3294 7.49743C39.4681 7.29178 39.6915 7.21786 39.9426 7.2649C40.2522 7.32404 40.5558 7.4141 40.8435 7.61571C40.8113 7.71652 40.7851 7.79986 40.769 7.85631C40.588 8.03777 40.3617 7.92755 40.1558 7.99072C40.02 8.23804 40.0434 8.50552 40.1208 8.76627C40.3792 9.6171 41.3793 10.1279 42.3224 9.89533C42.7035 9.7999 43.0451 9.63726 43.362 9.4222C43.4262 9.38053 43.4875 9.33349 43.6014 9.25822C43.508 9.73403 43.2525 10.0512 42.8977 10.3133V10.3147ZM45.1972 12.015C45.9593 11.7529 46.7214 11.4975 47.4806 11.23C47.6879 11.1588 47.8909 11.0607 48.0851 10.9599C48.7348 10.6185 49.1436 10.1131 49.2764 9.42623C49.3158 9.22462 49.3596 9.02166 49.4224 8.82542C49.6327 8.14126 50.2356 7.71921 51.0138 7.71115C51.4912 7.70577 51.9497 7.81195 52.3891 7.96922C53.6871 8.43562 54.7208 9.19639 55.3792 10.3349C55.918 11.2677 56.0187 12.2516 55.6566 13.2664C55.6303 13.3376 55.6011 13.4088 55.569 13.4801C55.553 13.507 55.5267 13.5271 55.4843 13.5728C55.0843 13.175 54.5996 12.8927 54.0696 12.6817C53.4944 12.4532 52.8885 12.3107 52.2709 12.218C50.7087 11.9827 49.1319 11.9209 47.5507 11.9747C46.7054 12.0042 45.8615 12.0634 44.9811 12.1145C45.0687 12.0728 45.1329 12.0405 45.1972 12.0163V12.015ZM45.8308 13.5997C44.9169 13.6562 44.0102 13.7933 43.0992 13.8941C43.0539 13.8994 43.0057 13.8941 42.9473 13.847C43.3634 13.7126 43.7737 13.5621 44.1971 13.4492C45.9082 12.9949 47.6558 12.8134 49.4341 12.8725C50.351 12.9021 51.262 13.0069 52.1468 13.2475C52.8184 13.4317 53.3995 13.7435 53.8973 14.1925C54.1455 14.421 54.382 14.6615 54.6244 14.8941C53.7747 14.2489 52.7804 13.964 51.7438 13.7798C50.8167 13.6131 49.8809 13.5177 48.9377 13.5217C47.9011 13.5244 46.8645 13.5365 45.8323 13.6024L45.8308 13.5997Z" fill="#19123C"/>
<path d="M51.9161 10.648C52.3468 10.6534 52.7352 10.3268 52.741 9.95582C52.7469 9.55528 52.3731 9.21118 51.9307 9.21253C51.5161 9.21387 51.1657 9.5284 51.154 9.91012C51.1409 10.3187 51.4752 10.6427 51.9147 10.648H51.9161Z" fill="#19123C"/>
<path d="M35.9788 33.2694L8.65924 33.1108L35.9525 36.6862L35.9788 33.2694Z" fill="#F96519"/>
<path d="M50.2313 39.7481C50.9963 39.728 51.7614 39.7092 52.5308 39.6796C53.9543 39.6258 55.3792 39.564 56.8027 39.5049C57.4393 39.478 58.0744 39.4578 58.711 39.4282C59.3242 39.3987 59.9344 39.357 60.5447 39.3301C60.8484 39.3153 61.155 39.3274 61.4937 39.3274C62.5785 38.4833 62.8924 38.0814 62.888 36.9887C63.0559 36.8811 63.237 36.7803 63.4049 36.6594C63.8896 36.3112 64.202 35.8623 64.2794 35.2951C64.3466 34.7897 64.367 34.2816 64.2925 33.7695C64.1641 32.8811 63.4691 32.2063 62.507 32.0813C62.0427 32.0195 61.5711 31.9832 61.1024 31.9415C59.9301 31.838 58.7548 31.7399 57.5824 31.6324C56.3779 31.5222 55.1705 31.4066 53.963 31.287C53.6491 31.2574 53.3367 31.209 53.0651 31.1767C52.5454 30.6418 52.0636 30.1364 51.5701 29.6431C50.5072 28.5813 49.2356 27.8326 47.7142 27.4401C46.374 27.0987 45.0147 26.842 43.6496 26.6081C42.4933 26.4119 41.3311 26.2277 40.1719 26.0516C39.5674 25.9589 38.9572 25.8917 38.3513 25.8231C37.8505 25.7667 37.3468 25.725 36.811 25.6739C36.811 25.6739 36.2591 25.6 35.3933 25.5637L33.5114 25.5731C33.0719 25.5933 32.6076 25.6323 32.1331 25.6954C30.8483 25.8594 29.492 26.186 28.3196 26.807C28.0451 26.9764 27.7838 27.1578 27.5254 27.3514C27.248 27.5597 26.9764 27.7788 26.7019 28.0087L24.5908 29.2157L8.65924 30.7587C9.59218 30.8273 10.5091 30.9012 11.423 30.9603C12.4815 31.0316 13.5386 31.0974 14.5971 31.1566C15.7724 31.2251 16.9506 31.287 18.1259 31.3501C19.3625 31.416 20.5962 31.4845 21.8328 31.5464C23.0432 31.6122 24.255 31.6808 25.4682 31.7372C27.0917 31.8112 28.7196 31.877 30.3432 31.9456C31.5535 31.9993 32.7682 32.0464 33.9815 32.1001C34.4268 32.1176 34.8765 32.1391 35.3218 32.166C36.6518 32.2426 37.979 32.3206 39.309 32.4039C40.3909 32.4698 41.4727 32.5316 42.5546 32.6149C43.1167 32.6593 43.6788 32.7372 44.2117 32.9268C44.8541 33.1553 45.3023 33.6015 45.2585 34.3152C45.2556 34.369 45.2585 34.4228 45.2585 34.4752C45.2527 34.6687 45.2454 34.8609 45.2395 35.0545C45.2235 35.6015 45.2074 36.1459 45.1884 36.6889L45.1943 36.9685C44.8293 35.0989 43.3795 33.6983 41.6465 33.6983C39.6477 33.6983 38.0271 35.5626 38.014 37.8623L37.8242 37.8502L30.1913 37.279L30.0716 37.2696C28.8189 37.1715 27.5692 37.0707 26.3194 36.9752C25.331 36.9013 24.3469 36.8301 23.3585 36.7588C22.9877 36.7346 22.6154 36.7078 22.2445 36.6849L9.62284 35.74L38.4885 40.7871C38.3367 40.814 38.1877 40.8167 38.0403 40.814C36.7818 40.775 35.5218 40.7374 34.2589 40.6957C32.9055 40.6514 31.5506 40.6003 30.1972 40.5533C29.8643 40.5385 29.5358 40.5143 29.2058 40.5089C28.8189 40.5035 28.4306 40.5089 28.0437 40.5089C28.0407 40.5183 28.0334 40.5264 28.0305 40.5358C28.2597 40.5748 28.489 40.6097 28.7211 40.6487C29.473 40.767 30.2264 40.892 30.9783 41.0089C32.0368 41.1756 33.0938 41.3328 34.1494 41.4995C35.1597 41.6568 36.1671 41.8234 37.1745 41.9807C38.2432 42.1474 39.3119 42.3019 40.3807 42.4646C41.8436 42.6904 43.3065 42.9229 44.768 43.1514C45.9987 43.345 47.2281 43.5345 48.4588 43.7227C48.8078 43.7764 49.1626 43.8571 49.5086 43.841C50.0838 43.8168 50.6576 43.7334 51.2299 43.6595C52.6403 43.478 54.0492 43.2885 55.4595 43.1003C56.683 42.9404 57.9065 42.7818 59.13 42.6165C60.5024 42.4296 61.8748 42.2361 63.2501 42.0452L64.1699 41.9202C64.1699 41.9027 64.167 41.888 64.167 41.8691C62.9406 41.6998 61.7127 41.5331 60.4411 41.3584C60.6995 41.017 60.9316 40.7078 61.1959 40.3597C60.8995 40.3772 60.644 40.396 60.3914 40.4067C59.0263 40.4753 57.6598 40.5438 56.2947 40.603C54.7164 40.6742 53.1396 40.7549 51.5613 40.7992C50.5247 40.8261 49.4852 40.7965 48.4486 40.7871C48.4063 40.7871 48.3683 40.767 48.2939 40.7428C48.7815 40.4067 49.2429 40.0922 49.7378 39.7495C49.8794 39.7495 50.0546 39.7522 50.2313 39.7495V39.7481ZM41.645 40.0761C40.5953 40.0761 39.747 39.0949 39.747 37.8852C39.747 36.6755 40.5967 35.6943 41.645 35.6943C42.6933 35.6943 43.5474 36.6755 43.5474 37.8852C43.5474 39.0949 42.6977 40.0761 41.645 40.0761ZM59.8103 38.2091L57.9372 38.2857C57.7342 38.2951 57.559 38.1486 57.5503 37.9618V37.9148C57.54 37.7279 57.6992 37.5666 57.9021 37.5586L59.7753 37.482C59.9782 37.4766 60.1534 37.6218 60.1593 37.8086L60.1622 37.8556C60.1724 38.0425 60.0133 38.2037 59.8103 38.2091ZM30.0161 30.6082C30.1169 30.4415 30.2424 30.3676 30.3578 30.2896C30.6133 30.1176 30.8717 29.9482 31.1389 29.7936C31.2454 29.7318 31.3783 29.6754 31.4966 29.6713C32.1901 29.6592 32.885 29.666 33.5917 29.666C33.7566 30.002 33.9172 30.3259 34.1143 30.7238C32.7127 30.6848 31.3856 30.6472 30.0132 30.6082H30.0161ZM34.4093 28.5302C33.9961 28.5302 33.5026 28.5275 33.0106 28.5329C32.504 28.5356 31.993 28.5208 31.4936 28.5718C30.9476 28.6283 30.4468 28.8366 30.0059 29.1364C29.6278 29.3944 29.2701 29.678 28.908 29.9563C28.6569 30.1498 28.4145 30.3541 28.1429 30.5746C27.8466 30.5544 27.5297 30.5356 27.21 30.5154C27.2261 30.4738 27.229 30.4496 27.2421 30.4348C27.8816 29.7627 28.5401 29.1149 29.2759 28.5329C30.038 27.9294 30.9549 27.6296 31.9302 27.463C32.6733 27.3353 33.4223 27.264 34.1771 27.2546C35.0838 27.2425 35.9919 27.2129 36.8986 27.2156C37.8446 27.2183 38.7878 27.2479 39.731 27.2721C40.0609 27.2842 40.3865 27.3232 40.715 27.346C40.7121 27.3608 40.7121 27.3756 40.7092 27.3877C40.4157 27.3877 40.1208 27.385 39.8273 27.3904C38.5162 27.4052 37.2183 27.5503 35.9364 27.7976C35.5977 27.8635 35.2648 27.9939 34.948 28.131C34.764 28.2116 34.6224 28.3662 34.4093 28.5288V28.5302ZM36.0401 30.8972C35.7919 30.3259 35.5495 29.7641 35.2969 29.1821C35.3977 29.1404 35.4648 29.1014 35.5393 29.084C36.573 28.8111 37.6256 28.6498 38.6944 28.549C40.315 28.3917 41.9399 28.3501 43.5664 28.389C44.7899 28.4213 46.0133 28.4778 47.2208 28.6888C48.0734 28.838 48.8574 29.1081 49.4867 29.6727C49.9714 30.1001 50.4298 30.5531 50.897 30.9953C50.9189 31.0154 50.9262 31.049 50.9525 31.1055C45.9739 31.0853 41.0143 31.0437 36.0386 30.8972H36.0401ZM47.7551 36.4524C46.7638 36.447 46.2148 35.6768 46.2382 35.0048C46.244 34.8206 46.2513 34.6365 46.2893 34.4577C46.4674 33.6606 47.0032 33.2332 47.8836 33.1969C48.4355 33.1768 48.9917 33.1768 49.5436 33.1727C53.3995 33.1485 57.251 33.1284 61.1024 33.1069C61.2572 33.1069 61.409 33.1163 61.5638 33.1096C62.196 33.0921 62.7654 33.4483 62.9172 34.1714C63.1114 35.0894 62.5391 35.8596 61.7317 36.0706C61.4733 36.1365 61.1988 36.1634 60.9316 36.1715C59.73 36.2104 58.5299 36.2373 57.3283 36.2642C55.2332 36.3112 53.1338 36.3529 51.0387 36.3986C50.4021 36.4134 49.767 36.4376 49.2341 36.4551C48.672 36.4551 48.2136 36.4578 47.7551 36.4524ZM49.6882 38.1164C49.6779 37.9295 49.8371 37.7683 50.04 37.7602L51.9132 37.6836C52.1161 37.6782 52.2913 37.8234 52.2972 38.0102L52.3001 38.0572C52.3103 38.2441 52.1512 38.4054 51.9482 38.4107L50.0751 38.4874C49.8721 38.4968 49.6969 38.3503 49.6882 38.1634V38.1164Z" fill="#F96519"/>
<path d="M53.1484 35.7025C54.8011 35.6729 56.4538 35.646 58.1065 35.6151C58.2628 35.6124 58.4204 35.5976 58.5767 35.5815C58.9533 35.5425 59.1913 35.3463 59.3023 35.0479C59.3592 34.8933 59.3826 34.7226 59.3797 34.56C59.3709 34.0331 59.0424 33.7616 58.4321 33.7602C57.3181 33.7575 56.2056 33.7602 55.0916 33.7602V33.7737C54.5295 33.7737 53.9674 33.7683 53.4039 33.7737C52.7746 33.7804 52.1454 33.7992 51.5161 33.8086C51.1657 33.814 50.9292 33.9726 50.7511 34.2172C50.6065 34.4162 50.5875 34.6366 50.589 34.8624C50.5934 35.3113 50.8941 35.767 51.6314 35.7401C52.1366 35.7213 52.6432 35.7119 53.1484 35.7025Z" fill="#F96519"/>
<path d="M48.2749 33.4228C47.6675 33.5773 47.2485 34.1567 47.2485 34.8314C47.2354 35.3045 47.4383 35.6903 47.8427 35.9524C48.0909 36.1123 48.3786 36.193 48.6633 36.193C48.983 36.193 49.2998 36.0922 49.548 35.8932C50.116 35.4416 50.2868 34.6392 49.9451 34.0679C49.6064 33.5061 48.9509 33.2534 48.2764 33.4228H48.2749ZM49.1232 35.4443C48.8706 35.6459 48.5027 35.6553 48.2121 35.4645C47.9887 35.3193 47.8822 35.1164 47.8924 34.8462V34.8341C47.8895 34.4295 48.1216 34.0787 48.4443 33.9954C48.5275 33.9752 48.6092 33.9658 48.6895 33.9658C48.9772 33.9658 49.2224 34.1029 49.3772 34.3556C49.5743 34.6849 49.4619 35.1728 49.1217 35.443L49.1232 35.4443Z" fill="#F96519"/>
<path d="M60.3797 35.6998C60.6192 35.8544 60.8893 35.9283 61.1608 35.9283C61.4645 35.9283 61.7653 35.8329 62.0032 35.6433C62.5391 35.2119 62.704 34.4538 62.3785 33.9108C62.0558 33.3758 61.4324 33.1379 60.7929 33.2979C60.2147 33.443 59.8147 33.9928 59.8147 34.6353C59.8016 35.0842 59.9987 35.4498 60.3797 35.6998ZM60.46 34.6393C60.46 34.2683 60.6703 33.9471 60.9637 33.8718C61.0382 33.8516 61.1156 33.8422 61.1871 33.8422C61.4484 33.8422 61.6747 33.9672 61.8134 34.1984C61.9945 34.4982 61.8908 34.9444 61.5813 35.1944C61.3521 35.3759 61.0163 35.3853 60.752 35.2119C60.5491 35.0815 60.4556 34.8974 60.4615 34.6473V34.6379L60.46 34.6393Z" fill="#F96519"/>
</svg>
