<svg width="153" height="153" viewBox="0 0 153 153" fill="none" xmlns="http://www.w3.org/2000/svg">
<path d="M123.26 71.402C121.88 70.4473 117.495 67.4026 116.155 66.402C113.205 64.2019 110.383 61.8334 107.675 59.3365C105.659 57.476 103.771 55.487 102.207 53.2134C101.057 51.5365 100.074 49.7678 99.5081 47.8064C98.5351 44.4557 99.0216 41.3773 101.384 38.7396C103.758 36.0927 106.785 34.8962 110.322 35.0584C114.551 35.2543 116.176 39.0517 115.647 41.8945C115.497 42.6809 115.261 43.4428 115.05 44.269C115.166 44.1956 115.273 44.1466 115.362 44.0793C116.329 43.3082 117.25 42.482 118.009 41.4936C121.277 37.231 122.734 32.4666 121.806 27.1147C121.142 23.256 119.114 20.2113 115.931 17.9377C114.569 16.9646 113.07 16.2945 111.525 15.7529C111.485 15.6917 111.451 15.6519 111.43 15.6029C110.328 12.8 108.425 10.6488 105.949 8.97193C103.765 7.49089 101.369 6.46885 98.8564 5.68243C94.3643 4.27483 89.7345 3.74851 85.0527 3.67813C83.1035 3.65059 81.1542 3.81277 79.2111 4.03615C76.6805 4.33297 74.2019 4.84705 71.7478 5.51719C65.8145 7.14817 60.3248 9.77977 55.1626 13.0815C51.8395 15.2143 48.5928 17.4665 45.3217 19.7003C42.8706 21.371 40.3828 22.9684 37.687 24.2352C37.5034 24.3239 37.3289 24.4188 37.0107 24.5749C41.056 24.5534 44.8749 23.9108 48.8345 23.1214C48.5775 23.4059 48.4551 23.5559 48.3143 23.6905C45.9184 26.0528 43.7274 28.6049 41.5395 31.1477C38.7304 34.4097 36.004 37.7329 32.9776 40.799C30.8938 42.9165 28.7089 44.9147 26.3038 46.6589C25.9243 46.9373 25.5602 47.2342 25.092 47.5922C25.3613 47.5585 25.5051 47.5463 25.6459 47.5187C28.048 47.0047 30.343 46.1846 32.5829 45.1962C35.1869 44.0518 37.7267 42.7788 40.2084 41.4079C40.3369 41.3406 40.4869 41.3069 40.7011 41.2243C39.8075 42.7207 38.9691 44.113 38.1307 45.5144C35.8907 49.2691 33.611 52.9992 30.802 56.3744C29.171 58.3297 27.4115 60.1627 25.4684 61.8212C24.8533 62.3414 24.2291 62.8555 23.614 63.3695C26.2793 62.9228 28.7089 61.8732 31.0712 60.6767C33.4397 59.4864 35.7133 58.1247 38.0205 56.5947C37.1759 59.8567 36.8485 63.0574 37.0597 66.3194L42.5677 65.2361C45.1717 61.3591 48.6387 58.4276 52.583 55.7899C51.3315 58.394 50.9062 62.5433 51.2825 65.1505L55.8175 62.6413C55.8175 62.6015 55.8113 62.5678 55.8175 62.5342C55.8052 62.1547 55.8175 61.7845 55.845 61.4173C56.0684 58.2624 57.2924 55.5635 59.5323 53.3236C60.8726 51.9833 62.3689 50.8817 64.107 50.1167C64.3243 50.0218 64.5262 49.8994 64.8322 49.7372C63.8836 52.5524 64.0121 55.2514 64.8873 57.9136C65.6309 57.7514 66.402 57.6076 67.2098 57.5005C68.1707 57.3658 69.1713 57.271 70.1811 57.2159L70.9186 57.2098C72.1517 55.4288 73.593 53.8805 75.2301 52.4943C74.7221 54.0304 74.4039 55.5941 74.257 57.1975C75.5912 57.2587 76.5581 57.3597 77.011 57.4209C76.6132 53.9753 77.2405 50.6522 78.6542 47.2892C75.1077 49.4955 72.3415 52.277 69.9455 55.4717C69.8231 49.315 72.6107 44.4955 76.8274 40.3063C74.2019 41.4691 71.8274 43.0205 69.4987 44.6515C71.5091 39.9605 74.6089 36.2273 79.2234 33.6355C78.9725 33.6294 78.899 33.6019 78.8317 33.6233C77.8158 33.9415 76.8029 34.2383 75.7993 34.5841C73.3237 35.4379 70.8512 36.2885 68.3879 37.1759C63.9081 38.7947 59.4221 40.3981 54.9607 42.0689C51.9007 43.2194 48.9447 44.5873 46.2182 46.4141C46.1356 46.4692 46.0438 46.5151 45.8388 46.6252C47.1515 43.5132 48.7427 40.7378 50.9062 38.3204C53.9723 34.8962 57.938 32.9256 62.1731 31.3497C59.6486 30.8356 57.1057 30.8693 54.419 30.8968C57.0109 28.7854 59.8199 27.3319 62.7025 25.9825C59.3854 25.9152 56.1938 26.5577 52.9502 27.7022C56.2918 24.0761 60.1045 21.4016 64.5017 19.5473C61.6131 19.229 58.7489 19.5932 55.7869 19.7584C58.5684 17.5858 61.405 15.7039 64.4161 14.0944C69.1315 11.5699 74.1254 9.82567 79.3856 8.84953C81.8428 8.39665 84.3183 8.15185 86.8153 8.09065C90.016 8.01721 93.1831 8.34157 96.3166 8.97805C98.0546 9.32995 99.7805 9.75529 101.427 10.453C102.002 10.6978 102.55 10.967 103.009 11.4016C104.019 12.3502 103.786 13.5803 103.049 14.3728C102.385 15.0827 101.54 15.2939 100.613 15.1317C99.0552 14.8532 97.5069 14.5503 95.9555 14.2535C92.9658 13.6721 89.9456 13.3661 86.9071 13.2926C84.4101 13.2314 81.9193 13.2988 79.4284 13.5436C76.7907 13.7945 74.1836 14.1739 71.6407 14.9175C69.8537 15.4377 68.1003 16.0558 66.3286 16.9799C67.1609 16.9126 67.8708 16.8514 68.5807 16.7841C70.4565 16.6158 72.3292 16.5944 74.1989 16.83C76.3929 17.0993 77.9198 18.1886 78.5563 20.3765C78.5961 20.5173 78.6298 20.6672 78.6848 20.8019C78.9082 21.4047 79.0918 22.0259 79.3672 22.6012C81.038 26.0467 84.3948 27.5278 87.7791 27.1208C89.1806 26.9525 90.5332 26.5455 91.8796 26.1538C92.3324 26.0192 92.7945 25.8907 93.2535 25.7621C93.1801 25.9243 93.0852 25.9978 92.9842 26.059C92.0632 26.5884 91.136 27.1085 90.2241 27.6563C88.229 28.868 86.4266 30.3154 84.8293 32.029C83.1708 33.7946 81.8917 35.8051 80.9125 38.0113C80.9003 38.0389 80.9462 38.0939 80.9523 38.1123C82.7852 36.6098 84.8293 35.4593 87.1641 34.5719C86.7051 35.0645 86.3532 35.4715 85.9738 35.851C82.4333 39.4312 80.5055 43.7213 80.3219 48.7642C80.2669 50.0555 80.3831 51.3346 80.7075 52.5892C80.7626 52.8125 80.6799 53.091 80.9523 53.2593C81.4786 51.919 82.0692 50.6338 82.7455 49.2476C83.1096 52.6779 85.4382 56.3132 87.0631 57.0353C85.0129 51.5885 85.8299 46.4569 88.8624 41.4905C88.8624 41.6588 88.8746 41.7353 88.8563 41.7965C88.3024 43.3877 87.9566 45.0187 87.8006 46.6956C87.5711 49.1803 87.8067 51.5763 88.7614 53.8958C89.4989 55.6889 90.7229 57.1027 92.2468 58.293C91.0228 55.6951 90.0283 53.0267 89.8997 50.1259C89.7773 47.1883 90.4016 44.3945 91.4756 41.6252C91.5093 41.7323 91.543 41.7751 91.543 41.8149C91.5307 41.9373 91.5093 42.0597 91.4818 42.179C91.0013 44.6821 90.9799 47.1883 91.5154 49.6852C92.2468 53.1308 93.945 56.0806 96.1574 58.7673C96.3747 59.0305 96.644 59.1529 96.9683 59.2355C98.2811 59.5751 99.5938 59.9179 100.9 60.2851C104.263 61.2337 107.128 63.0176 109.536 65.536C110.524 66.5703 114.45 69.7711 115.423 70.8359C118.199 71.1817 120.986 71.5336 123.936 71.8978C123.612 71.6744 123.434 71.5459 123.254 71.4173L123.26 71.402ZM47.2984 51.4233C50.1871 49.2905 53.4092 47.8094 56.7783 46.6252C58.856 45.9 60.9552 45.2635 63.1064 44.7984C63.1737 44.7862 63.241 44.7984 63.3971 44.7984C63.2808 44.9392 63.2227 45.034 63.1339 45.1044C60.129 47.7574 56.9619 50.1932 53.6724 52.4821C50.7348 54.5323 47.9135 56.7385 45.239 59.1284C44.1221 60.129 43.094 61.2337 42.0046 62.3077C42.0046 62.0507 41.9924 61.7998 42.0107 61.5488C42.1331 59.9729 42.4085 58.4215 42.9593 56.9282C43.8039 54.621 45.3492 52.8615 47.2984 51.4264V51.4233ZM89.9089 23.4824C88.2779 24.7891 85.6402 24.7217 83.948 23.5039C82.3905 22.387 81.6194 20.8723 81.754 18.923C81.7999 18.2407 82.0723 17.6317 82.4303 17.0687C82.721 16.6005 83.1891 16.4322 83.7155 16.5393C84.3642 16.6739 85.0007 16.879 85.6035 17.338C85.5362 17.5675 85.4811 17.7572 85.4474 17.8857C85.068 18.2988 84.5937 18.0479 84.1622 18.1917C83.8777 18.7547 83.9266 19.3637 84.0888 19.9573C84.6304 21.8943 86.7265 23.0571 88.7033 22.5277C89.5019 22.3105 90.218 21.9402 90.882 21.4506C91.0166 21.3557 91.1452 21.2486 91.3838 21.0773C91.188 22.1605 90.6525 22.8827 89.9089 23.4794V23.4824ZM94.7284 27.3533C96.3257 26.7566 97.9231 26.1752 99.5143 25.5663C99.9488 25.4041 100.374 25.1807 100.781 24.9512C102.143 24.174 103 23.0234 103.278 21.4598C103.361 21.0008 103.452 20.5387 103.584 20.092C104.025 18.5344 105.288 17.5736 106.919 17.5552C107.92 17.543 108.881 17.7847 109.802 18.1427C112.522 19.2046 114.689 20.9365 116.069 23.5283C117.198 25.652 117.409 27.8919 116.65 30.2022C116.595 30.3644 116.534 30.5266 116.467 30.6887C116.433 30.7499 116.378 30.7958 116.289 30.8999C115.451 29.9941 114.435 29.3515 113.324 28.8711C112.118 28.3509 110.848 28.0265 109.554 27.8154C106.28 27.2799 102.975 27.1391 99.6611 27.2615C97.8894 27.3289 96.1207 27.4635 94.2755 27.5798C94.4591 27.4849 94.5938 27.4115 94.7284 27.3564V27.3533ZM96.0565 30.9611C94.1409 31.0896 92.2406 31.4017 90.3312 31.6312C90.2363 31.6435 90.1354 31.6312 90.013 31.5241C90.8851 31.2181 91.7449 30.8754 92.6323 30.6184C96.2186 29.5841 99.8814 29.171 103.609 29.3056C105.53 29.3729 107.44 29.6116 109.294 30.1594C110.702 30.5786 111.919 31.2885 112.963 32.3105C113.483 32.8307 113.979 33.3785 114.487 33.9079C112.706 32.4391 110.622 31.7903 108.449 31.3711C106.506 30.9917 104.545 30.7744 102.568 30.7836C100.396 30.7897 98.2229 30.8173 96.0595 30.9672L96.0565 30.9611Z" fill="#19123C"/>
<path d="M108.811 24.2413C109.713 24.2536 110.527 23.51 110.539 22.6654C110.552 21.7535 109.768 20.9702 108.841 20.9732C107.972 20.9763 107.238 21.6923 107.213 22.5614C107.186 23.4916 107.886 24.2291 108.807 24.2413H108.811Z" fill="#19123C"/>
<path d="M75.4076 75.7411L18.1489 75.3801L75.3525 83.5197L75.4076 75.7411Z" fill="#F96519"/>
<path d="M105.279 90.4903C106.883 90.4444 108.486 90.4016 110.099 90.3343C113.082 90.2119 116.069 90.0711 119.052 89.9365C120.387 89.8753 121.718 89.8294 123.052 89.762C124.337 89.6947 125.616 89.5999 126.895 89.5387C127.532 89.505 128.174 89.5325 128.884 89.5325C131.158 87.6109 131.816 86.6959 131.806 84.2082C132.158 83.9634 132.538 83.7338 132.89 83.4584C133.906 82.6659 134.56 81.6439 134.723 80.3525C134.863 79.202 134.906 78.0453 134.75 76.8795C134.481 74.8568 133.024 73.3207 131.008 73.0361C130.035 72.8953 129.046 72.8127 128.064 72.7178C125.607 72.4822 123.144 72.2588 120.686 72.014C118.162 71.7631 115.631 71.5 113.101 71.2276C112.443 71.1603 111.788 71.0501 111.219 70.9767C110.129 69.7588 109.12 68.6083 108.085 67.4852C105.858 65.0678 103.192 63.3634 100.004 62.4699C97.1948 61.6927 94.3459 61.1082 91.4848 60.5758C89.0613 60.129 86.6255 59.7098 84.1959 59.3089C82.9291 59.0978 81.65 58.9448 80.3801 58.7887C79.3305 58.6602 78.2748 58.5653 77.1518 58.4491C77.1518 58.4491 75.9951 58.2808 74.1805 58.1982L70.2362 58.2196C69.3151 58.2655 68.342 58.3542 67.3475 58.498C64.6547 58.8713 61.812 59.6149 59.3548 61.0287C58.7795 61.4142 58.2318 61.8273 57.6902 62.268C57.1088 62.7423 56.5396 63.241 55.9643 63.7643L51.5396 66.5122L18.1489 70.025C20.1042 70.1811 22.0259 70.3494 23.9414 70.484C26.1599 70.6462 28.3754 70.7962 30.5939 70.9308C33.0572 71.0869 35.5266 71.2276 37.9899 71.3715C40.5817 71.5214 43.1674 71.6774 45.7592 71.8182C48.296 71.9681 50.8358 72.1242 53.3786 72.2527C56.7814 72.421 60.1933 72.571 63.596 72.727C66.1327 72.8494 68.6786 72.9565 71.2215 73.0789C72.1548 73.1187 73.0973 73.1677 74.0306 73.2289C76.8182 73.4033 79.5998 73.5808 82.3874 73.7705C84.6549 73.9204 86.9224 74.0612 89.1898 74.2509C90.3679 74.3519 91.546 74.5294 92.6629 74.9608C94.0093 75.481 94.9487 76.497 94.8569 78.1218C94.8508 78.2442 94.8569 78.3666 94.8569 78.4859C94.8447 78.9266 94.8294 79.3642 94.8172 79.8048C94.7835 81.0502 94.7498 82.2895 94.7101 83.5258L94.7223 84.1623C93.9573 79.9058 90.9187 76.7173 87.2865 76.7173C83.0974 76.7173 79.7008 80.9615 79.6732 86.1971L79.2754 86.1696L63.2777 84.8691L63.0268 84.8477C60.4013 84.6243 57.782 84.3948 55.1626 84.1775C53.091 84.0092 51.0286 83.8471 48.9569 83.6849C48.1797 83.6298 47.3994 83.5686 46.6222 83.5166L20.1685 81.3654L80.6677 92.8557C80.3495 92.9169 80.0374 92.923 79.7283 92.9169C77.0906 92.8282 74.4498 92.7425 71.8029 92.6476C68.9663 92.5466 66.1266 92.4304 63.29 92.3233C62.5923 92.2896 61.9038 92.2345 61.2122 92.2223C60.4013 92.2101 59.5874 92.2223 58.7765 92.2223C58.7704 92.2437 58.7551 92.2621 58.7489 92.2835C59.2294 92.3722 59.7098 92.4518 60.1963 92.5405C61.7722 92.8098 63.3512 93.0944 64.9271 93.3606C67.1456 93.7401 69.361 94.0981 71.5734 94.4775C73.6909 94.8355 75.8023 95.215 77.9137 95.573C80.1536 95.9524 82.3936 96.3043 84.6335 96.6746C87.6996 97.1887 90.7657 97.7181 93.8288 98.2383C96.4084 98.6789 98.9849 99.1104 101.564 99.5388C102.296 99.6612 103.039 99.8448 103.765 99.808C104.97 99.753 106.173 99.5632 107.372 99.3949C110.328 98.9818 113.281 98.5504 116.237 98.122C118.801 97.7578 121.366 97.3967 123.93 97.0204C126.806 96.595 129.683 96.1544 132.565 95.7199L134.493 95.4353C134.493 95.3955 134.487 95.3619 134.487 95.319C131.917 94.9334 129.343 94.554 126.678 94.1562C127.22 93.379 127.706 92.6752 128.26 91.8826C127.639 91.9224 127.103 91.9652 126.574 91.9897C123.713 92.1458 120.849 92.3018 117.987 92.4365C114.68 92.5987 111.375 92.7823 108.067 92.8833C105.894 92.9445 103.716 92.8771 101.543 92.8557C101.454 92.8557 101.375 92.8098 101.219 92.7547C102.241 91.9897 103.208 91.2737 104.245 90.4934C104.542 90.4934 104.909 90.4995 105.279 90.4934V90.4903ZM87.2834 91.237C85.0833 91.237 83.3054 89.0032 83.3054 86.2492C83.3054 83.4952 85.0864 81.2614 87.2834 81.2614C89.4805 81.2614 91.2706 83.4952 91.2706 86.2492C91.2706 89.0032 89.4897 91.237 87.2834 91.237ZM125.356 86.9866L121.43 87.161C121.005 87.1825 120.637 86.8489 120.619 86.4236V86.3165C120.598 85.8911 120.931 85.5239 121.357 85.5056L125.283 85.3312C125.708 85.3189 126.075 85.6494 126.087 86.0748L126.093 86.1819C126.115 86.6072 125.781 86.9744 125.356 86.9866ZM62.9105 69.6823C63.1217 69.3029 63.3848 69.1346 63.6266 68.9571C64.1621 68.5654 64.7037 68.1799 65.2637 67.828C65.4871 67.6872 65.7655 67.5587 66.0134 67.5495C67.4669 67.522 68.9234 67.5373 70.4045 67.5373C70.7503 68.3023 71.0869 69.0397 71.5 69.9455C68.5624 69.8568 65.7808 69.7711 62.9044 69.6823H62.9105ZM72.1181 64.9516C71.2521 64.9516 70.2178 64.9454 69.1866 64.9577C68.1248 64.9638 67.0538 64.9302 66.0073 65.0464C64.8628 65.175 63.8132 65.6493 62.8891 66.3316C62.0966 66.9192 61.3469 67.5648 60.588 68.1982C60.0617 68.6389 59.5537 69.104 58.9846 69.6058C58.3634 69.5599 57.6994 69.5171 57.0292 69.4712C57.0629 69.3763 57.069 69.3212 57.0965 69.2876C58.4368 67.7576 59.8169 66.2827 61.3591 64.9577C62.9564 63.5837 64.8781 62.9014 66.9222 62.5219C68.4797 62.2312 70.0495 62.0691 71.6315 62.0476C73.5318 62.0201 75.4351 61.9528 77.3354 61.9589C79.3183 61.965 81.295 62.0323 83.2718 62.0874C83.9633 62.1149 84.6457 62.2037 85.3342 62.2557C85.3281 62.2894 85.3281 62.323 85.322 62.3506C84.7069 62.3506 84.0888 62.3444 83.4737 62.3567C80.7259 62.3903 78.0055 62.7208 75.3188 63.2839C74.6089 63.4338 73.9112 63.7306 73.2472 64.0427C72.8617 64.2263 72.5648 64.5782 72.1181 64.9485V64.9516ZM75.5361 70.3402C75.0159 69.0397 74.5079 67.7606 73.9786 66.4357C74.1897 66.3408 74.3305 66.2521 74.4865 66.2123C76.653 65.5911 78.8593 65.2239 81.0992 64.9944C84.4958 64.6364 87.9016 64.5415 91.3104 64.6303C93.8747 64.7037 96.439 64.8322 98.9696 65.3127C100.757 65.6523 102.4 66.2674 103.719 67.5526C104.735 68.5256 105.695 69.5569 106.675 70.5636C106.721 70.6095 106.736 70.686 106.791 70.8145C96.3563 70.7686 85.9615 70.6738 75.533 70.3402H75.5361ZM100.09 82.9872C98.0118 82.975 96.8612 81.2216 96.9102 79.6916C96.9224 79.2724 96.9377 78.8531 97.0173 78.4462C97.3906 76.6316 98.5136 75.6585 100.359 75.5759C101.516 75.53 102.681 75.53 103.838 75.5208C111.92 75.4657 119.992 75.4198 128.064 75.3709C128.388 75.3709 128.707 75.3923 129.031 75.377C130.356 75.3372 131.549 76.1481 131.868 77.7944C132.275 79.8844 131.075 81.6377 129.383 82.1182C128.841 82.2681 128.266 82.3293 127.706 82.3477C125.188 82.4364 122.672 82.4976 120.154 82.5588C115.763 82.6659 111.363 82.7608 106.971 82.8648C105.637 82.8985 104.306 82.9536 103.189 82.9933C102.011 82.9933 101.05 82.9995 100.09 82.9872ZM104.141 86.7755C104.12 86.3501 104.453 85.9829 104.878 85.9646L108.804 85.7902C109.23 85.7779 109.597 86.1084 109.609 86.5338L109.615 86.6409C109.637 87.0662 109.303 87.4334 108.878 87.4456L104.952 87.62C104.527 87.6415 104.159 87.3079 104.141 86.8826V86.7755Z" fill="#F96519"/>
<path d="M111.393 81.2797C114.857 81.2124 118.321 81.1512 121.785 81.0808C122.112 81.0747 122.443 81.0411 122.77 81.0043C123.56 80.9156 124.059 80.4688 124.291 79.7895C124.41 79.4376 124.459 79.049 124.453 78.6787C124.435 77.4792 123.746 76.8611 122.467 76.858C120.133 76.8519 117.801 76.858 115.466 76.858V76.8886C114.288 76.8886 113.11 76.8764 111.929 76.8886C110.61 76.9039 109.291 76.9468 107.972 76.9682C107.238 76.9804 106.742 77.3415 106.369 77.8984C106.066 78.3513 106.026 78.8532 106.029 79.3672C106.038 80.3893 106.669 81.4266 108.214 81.3654C109.273 81.3226 110.334 81.3012 111.393 81.2797Z" fill="#F96519"/>
<path d="M101.179 76.09C99.906 76.4419 99.0277 77.7607 99.0277 79.2969C99.0002 80.374 99.4255 81.2522 100.273 81.8489C100.793 82.213 101.396 82.3966 101.993 82.3966C102.663 82.3966 103.327 82.1671 103.847 81.7143C105.038 80.6861 105.396 78.8593 104.68 77.5588C103.97 76.2797 102.596 75.7044 101.182 76.09H101.179ZM102.957 80.6922C102.427 81.1512 101.656 81.1726 101.047 80.7381C100.579 80.4076 100.356 79.9456 100.377 79.3305V79.303C100.371 78.3819 100.858 77.5833 101.534 77.3935C101.708 77.3476 101.88 77.3262 102.048 77.3262C102.651 77.3262 103.165 77.6383 103.489 78.2136C103.902 78.9633 103.667 80.0741 102.954 80.6892L102.957 80.6922Z" fill="#F96519"/>
<path d="M126.549 81.2736C127.051 81.6255 127.617 81.7938 128.187 81.7938C128.823 81.7938 129.453 81.5766 129.952 81.1451C131.075 80.1628 131.421 78.437 130.739 77.2008C130.062 75.9829 128.756 75.4413 127.415 75.8054C126.204 76.1359 125.365 77.3874 125.365 78.8501C125.338 79.8721 125.751 80.7045 126.549 81.2736ZM126.718 78.8593C126.718 78.0147 127.158 77.2834 127.773 77.112C127.929 77.0661 128.092 77.0447 128.242 77.0447C128.789 77.0447 129.264 77.3293 129.554 77.8556C129.934 78.538 129.717 79.5539 129.068 80.1231C128.587 80.5362 127.884 80.5576 127.33 80.1628C126.904 79.866 126.709 79.4468 126.721 78.8776V78.8562L126.718 78.8593Z" fill="#F96519"/>
<path d="M23.3264 115.157C23.0112 114.303 22.4176 113.866 21.5608 113.866C21.1324 113.866 20.7713 113.976 20.4837 114.19C20.1868 114.404 19.9635 114.729 19.8258 115.166L15.5448 126.087C15.4989 126.17 15.4989 126.246 15.5356 126.292C15.5632 126.347 15.6366 126.375 15.7498 126.375H18.1275C18.3049 126.375 18.4243 126.302 18.4702 126.152L19.3606 123.811H23.715L24.5963 126.133C24.6514 126.292 24.7646 126.375 24.9482 126.375H27.3625C27.5951 126.375 27.6685 126.274 27.5767 126.06L23.3233 115.157H23.3264ZM20.1134 121.35L20.9947 118.731V118.759L21.5241 117.042C21.5883 117.32 21.6648 117.599 21.7566 117.887C21.8484 118.174 21.9525 118.471 22.0718 118.768L22.9806 121.35H20.1103H20.1134Z" fill="#19123C"/>
<path d="M32.5492 114.013H30.291C30.0951 114.013 29.9972 114.107 29.9972 114.297V126.112C29.9972 126.289 30.0859 126.378 30.2604 126.378H32.5462C32.7298 126.378 32.8216 126.289 32.8216 126.112V114.297C32.8216 114.107 32.7298 114.013 32.5462 114.013H32.5492Z" fill="#19123C"/>
<path d="M45.8664 114.013H43.6356C43.4735 114.013 43.3908 114.107 43.3908 114.297V118.964L43.4276 121.467L42.6993 120.258L38.7886 114.591C38.6999 114.453 38.5897 114.337 38.452 114.245C38.3174 114.153 38.1644 114.077 37.993 114.013L37.0199 113.927C36.6038 114.009 36.2947 114.181 36.0927 114.441C35.8908 114.701 35.7898 115.05 35.7898 115.484V126.112C35.7898 126.289 35.8724 126.378 36.0346 126.378H38.2745C38.4367 126.378 38.5193 126.289 38.5193 126.112V121.2L38.4918 118.707L39.2109 119.897L43.2072 125.705C43.6968 126.412 44.3088 126.693 45.0402 126.555C45.7654 126.424 46.1265 125.95 46.1265 125.139V114.294C46.1265 114.104 46.0377 114.009 45.8633 114.009L45.8664 114.013Z" fill="#19123C"/>
<path d="M60.7533 115.157C60.4381 114.303 59.8445 113.866 58.9877 113.866C58.5593 113.866 58.1982 113.976 57.9014 114.19C57.6137 114.404 57.3903 114.729 57.2526 115.166L52.9717 126.087C52.9258 126.17 52.9258 126.246 52.9625 126.292C52.9901 126.347 53.0635 126.375 53.1767 126.375H55.5543C55.7318 126.375 55.8512 126.302 55.8971 126.152L56.7875 123.811H61.1419L62.014 126.133C62.0783 126.292 62.1915 126.375 62.3751 126.375H64.7802C65.022 126.375 65.0954 126.274 65.0036 126.06L60.7502 115.157H60.7533ZM57.5372 121.35L58.4185 118.731V118.759L58.9479 117.042C59.0121 117.32 59.0886 117.599 59.1804 117.887C59.2722 118.174 59.3763 118.471 59.4956 118.768L60.4044 121.35H57.5342H57.5372Z" fill="#19123C"/>
<path d="M69.3672 113.248L67.2619 114.267C67.1426 114.312 67.0814 114.398 67.0814 114.533V126.112C67.0814 126.207 67.1058 126.274 67.1517 126.314C67.1976 126.357 67.2558 126.375 67.3262 126.375H69.4131C69.5569 126.375 69.6303 126.286 69.6303 126.109V113.517C69.6303 113.272 69.5416 113.18 69.3672 113.241V113.248Z" fill="#19123C"/>
<path d="M84.9824 119.82C84.6978 119.618 84.3183 119.429 83.8379 119.248C83.3606 119.071 82.7945 118.909 82.1488 118.762C81.6317 118.636 81.2186 118.529 80.9126 118.44C80.6035 118.352 80.3954 118.281 80.2883 118.232C79.9119 118.067 79.7222 117.813 79.7222 117.467C79.7222 116.819 80.2547 116.494 81.3195 116.494C82.3018 116.494 83.2014 116.886 84.0215 117.666C84.0858 117.761 84.199 117.749 84.3612 117.629L85.9769 116.127C86.1268 116.014 86.139 115.894 86.0136 115.769C84.7804 114.465 83.2504 113.814 81.4236 113.814C80.7932 113.814 80.2118 113.893 79.6763 114.055C79.1408 114.215 78.6604 114.465 78.232 114.805C77.2987 115.484 76.8336 116.393 76.8336 117.525C76.8336 118.658 77.1885 119.487 77.9015 120.065C78.4676 120.536 79.3948 120.919 80.6769 121.21C81.2614 121.347 81.7418 121.47 82.1121 121.577C82.4854 121.684 82.7516 121.785 82.9138 121.88C83.2841 122.07 83.4707 122.36 83.4707 122.758C83.4707 123.52 82.8036 123.899 81.4695 123.899C80.8514 123.899 80.2944 123.795 79.7987 123.584C79.2999 123.373 78.8471 123.052 78.437 122.617C78.3728 122.547 78.3146 122.51 78.2565 122.504C78.1983 122.498 78.1524 122.516 78.1157 122.559L76.4817 124.013C76.3501 124.15 76.3256 124.279 76.4144 124.392C77.5557 125.839 79.1867 126.565 81.3165 126.565C82.1427 126.565 82.871 126.476 83.5074 126.302C84.1439 126.124 84.6794 125.855 85.1139 125.488C85.9401 124.802 86.3502 123.847 86.3502 122.626C86.3502 121.406 85.8942 120.475 84.9793 119.82H84.9824Z" fill="#19123C"/>
<path d="M95.882 115.157C95.5577 114.303 94.9732 113.866 94.1164 113.866C93.688 113.866 93.3269 113.976 93.0301 114.19C92.7425 114.404 92.5191 114.729 92.3814 115.166L88.1005 126.087C88.0546 126.17 88.0454 126.246 88.0821 126.292C88.1188 126.347 88.1923 126.375 88.3055 126.375H90.6739C90.8606 126.375 90.9799 126.302 91.0258 126.152L91.9163 123.811H96.2707L97.1428 126.133C97.1978 126.292 97.3202 126.375 97.5038 126.375H99.909C100.151 126.375 100.224 126.274 100.132 126.06L95.879 115.157H95.882ZM92.669 121.35L93.5503 118.731V118.759L94.0797 117.042C94.1348 117.32 94.2205 117.599 94.3123 117.887C94.3949 118.174 94.5081 118.471 94.6274 118.768L95.5271 121.35H92.666H92.669Z" fill="#19123C"/>
<path d="M111.28 115.576C110.258 114.398 108.912 113.811 107.241 113.811C105.57 113.811 104.224 114.395 103.211 115.576C102.207 116.708 101.714 118.251 101.714 120.191C101.714 122.131 102.207 123.682 103.211 124.833C104.224 125.983 105.561 126.559 107.241 126.559C107.583 126.559 107.899 126.54 108.199 126.503C108.495 126.458 108.774 126.393 109.034 126.298L109.796 127.412C109.833 127.495 109.888 127.541 109.955 127.553C110.028 127.571 110.096 127.544 110.169 127.47L111.831 126.384C111.913 126.338 111.972 126.283 111.99 126.216C111.999 126.152 111.981 126.087 111.916 126.011L111.109 124.879C112.204 123.728 112.761 122.158 112.761 120.188C112.761 118.217 112.268 116.724 111.283 115.573L111.28 115.576ZM109.524 122.623L108.912 121.715C108.856 121.632 108.801 121.595 108.743 121.586C108.679 121.577 108.602 121.595 108.52 121.632L106.877 122.709C106.803 122.755 106.766 122.81 106.766 122.868C106.757 122.932 106.776 122.988 106.812 123.055L107.47 124.003L107.155 124.049C106.32 123.976 105.668 123.603 105.206 122.936C104.759 122.247 104.548 121.338 104.548 120.197C104.548 119.658 104.594 119.184 104.689 118.759C104.781 118.339 104.93 117.96 105.145 117.636C105.601 116.883 106.295 116.503 107.244 116.503C108.192 116.503 108.878 116.874 109.343 117.608C109.548 117.932 109.695 118.306 109.79 118.74C109.882 119.169 109.931 119.658 109.931 120.197C109.931 121.274 109.802 122.082 109.533 122.63L109.524 122.623Z" fill="#19123C"/>
<path d="M123.86 123.563H117.939V121.2H121.803C122.011 121.2 122.115 121.096 122.115 120.888V118.667C122.115 118.471 122.021 118.373 121.831 118.373H117.939V116.843H123.719C123.903 116.843 123.994 116.757 123.994 116.589V114.312C123.994 114.11 123.903 114.009 123.719 114.009H116.644C115.644 114.009 115.142 114.548 115.142 115.625V124.796C115.142 125.846 115.644 126.372 116.644 126.372H123.86C123.997 126.372 124.068 126.283 124.068 126.106V123.811C124.068 123.642 123.997 123.557 123.86 123.557V123.563Z" fill="#19123C"/>
<path d="M137.44 126.032L134.551 121.592C136.121 120.989 136.901 119.762 136.901 117.942C136.901 116.696 136.455 115.714 135.564 114.989C134.775 114.358 133.753 114.04 132.489 114.04H128.272C127.269 114.04 126.767 114.569 126.767 115.647V126.112C126.767 126.289 126.849 126.372 127.008 126.372H129.313C129.481 126.372 129.564 126.289 129.564 126.112V122.018H131.598L134.337 126.243C134.392 126.326 134.515 126.372 134.671 126.372H137.281C137.486 126.372 137.541 126.262 137.44 126.029V126.032ZM132.434 119.484H129.564V116.699H132.434C133.529 116.699 134.068 117.137 134.068 118C134.068 118.985 133.529 119.487 132.434 119.487V119.484Z" fill="#19123C"/>
<path d="M34.6484 130.081H32.1086V132.62H34.6484V130.081Z" fill="#19123C"/>
<path d="M30.9519 130.081H28.4121V132.62H30.9519V130.081Z" fill="#19123C"/>
<path d="M67.4761 142.887H64.1621V138.551C64.0213 137.565 63.7154 136.785 63.2625 136.247C62.7973 135.708 62.3353 135.338 61.8793 135.151C61.4234 134.955 60.9705 134.854 60.5146 134.836H51.2091V142.887H48.9141V138.272H46.5824V142.887H35.0309V134.836H31.4079C29.0853 134.836 27.5829 135.775 26.9127 137.62C26.365 139.579 26.8026 141.289 28.2224 142.691L28.4183 142.887H20.0889V134.836H17.6746V143.529C17.6838 145.555 16.9585 146.605 15.5112 146.669V149.129H15.7529C18.2988 149.129 19.6636 147.865 19.9329 145.277L19.942 145.176H69.9792V129.554H67.4822V142.89L67.4761 142.887ZM32.4636 142.96L32.2953 142.878C30.6888 142.07 29.6851 140.833 29.3148 139.209V139.172C29.3516 138.624 29.5566 138.187 29.8993 137.899C30.3552 137.51 31.0682 137.351 32.0352 137.425H32.4636V142.96ZM61.6254 142.887H53.5378V137.241H59.9087C60.9675 137.382 61.5427 137.939 61.6254 138.893V142.887Z" fill="#19123C"/>
<path d="M75.1414 129.554H72.6812V145.169H75.1414V129.554Z" fill="#19123C"/>
<path d="M86.6929 130.081H84.1531V132.62H86.6929V130.081Z" fill="#19123C"/>
<path d="M127.195 146.788H124.655V149.328H127.195V146.788Z" fill="#19123C"/>
<path d="M123.232 146.788H120.693V149.328H123.232V146.788Z" fill="#19123C"/>
<path d="M137.397 142.89H133.587C132.556 142.657 131.953 141.963 131.77 140.824C131.653 139.597 131.904 138.661 132.513 138.03C133.214 137.308 134.401 136.984 136.042 137.064L135.714 134.79C135.277 134.628 134.848 134.582 134.401 134.661C133.248 134.661 132.195 134.986 131.25 135.622C129.922 136.522 129.16 137.746 128.988 139.261C128.893 140.873 129.105 142.033 129.612 142.703L129.753 142.89H126.776V134.833H124.316V142.89H91.6226V134.833H89.0828V143.909C89.1379 144.922 88.942 145.671 88.5044 146.127C88.1464 146.498 87.6201 146.669 86.9561 146.666H84.3704C83.0423 146.647 82.3508 145.947 82.3141 144.585V138.795H79.7865V143.538C79.7865 145.576 80.1506 147.021 80.8667 147.832C81.5215 148.676 82.464 149.105 83.6727 149.114H87.2896C87.4702 149.123 87.6354 149.126 87.7915 149.126C88.9298 149.126 89.7437 148.854 90.2119 148.321C90.928 147.688 91.3961 146.663 91.6103 145.264L91.6256 145.166H137.495L137.4 142.89H137.397Z" fill="#19123C"/>
</svg>
