<svg width="25" height="24" viewBox="0 0 25 24" fill="none" xmlns="http://www.w3.org/2000/svg">
<mask id="mask0_324_3227" style="mask-type:luminance" maskUnits="userSpaceOnUse" x="0" y="0" width="25" height="24">
<path d="M0.5 1.90735e-06H24.5V24H0.5V1.90735e-06Z" fill="white"/>
</mask>
<g mask="url(#mask0_324_3227)">
<path d="M4.0625 0.703011V19.9681H9.46128L12.5 23.0068L15.5387 19.9681H20.9375V0.703011H4.0625Z" stroke="#686868" stroke-width="1.3" stroke-miterlimit="10"/>
<path d="M13.9062 5.53223C13.9062 6.3089 13.2766 6.93848 12.5 6.93848C11.7234 6.93848 11.0938 6.3089 11.0938 5.53223C11.0938 4.7556 11.7234 4.12598 12.5 4.12598C13.2766 4.12598 13.9062 4.7556 13.9062 5.53223Z" stroke="#686868" stroke-width="1.3" stroke-miterlimit="10"/>
<path d="M14.7399 9.17824C14.7399 7.94121 13.7371 6.93841 12.5 6.93841C11.2631 6.93841 10.2603 7.94121 10.2603 9.17824V10.0974H14.7399V9.17824Z" stroke="#686868" stroke-width="1.3" stroke-miterlimit="10"/>
<path d="M8.28125 13.3562H16.7187" stroke="#686868" stroke-width="1.3" stroke-miterlimit="10" stroke-linecap="square"/>
<path d="M10.1562 16.1687H14.8437" stroke="#686868" stroke-width="1.3" stroke-miterlimit="10" stroke-linecap="square"/>
</g>
</svg>
