<svg width="161" height="146" viewBox="0 0 161 146" fill="none" xmlns="http://www.w3.org/2000/svg">
<path d="M77.3345 132.883C109.171 132.883 134.979 107.115 134.979 75.3287C134.979 43.5423 109.171 17.7744 77.3345 17.7744C45.4982 17.7744 19.6899 43.5423 19.6899 75.3287C19.6899 107.115 45.4978 132.883 77.3345 132.883Z" fill="url(#paint0_linear_76_3994)"/>
<path d="M108.433 31.1675H44.5751C40.5947 31.1675 37.3677 34.3894 37.3677 38.3636H115.64C115.64 34.389 112.413 31.1675 108.433 31.1675Z" fill="url(#paint1_linear_76_3994)"/>
<path d="M37.3681 38.1665H115.641V97.6865C115.641 100.333 114.588 102.871 112.714 104.742C110.839 106.613 108.298 107.664 105.647 107.664H47.3612C44.7105 107.664 42.1692 106.613 40.2946 104.742C38.4204 102.871 37.3677 100.333 37.3677 97.6865L37.3681 38.1665Z" fill="url(#paint2_linear_76_3994)"/>
<path d="M102.186 45.6841H50.8476C49.7788 45.6841 48.9119 46.5488 48.9119 47.6151C48.9119 48.6814 49.7788 49.5461 50.8476 49.5461H102.186C103.255 49.5461 104.121 48.6814 104.121 47.6151C104.121 46.5488 103.255 45.6841 102.186 45.6841Z" fill="url(#paint3_linear_76_3994)"/>
<path d="M102.186 62.0903H50.8476C49.7788 62.0903 48.9119 62.9551 48.9119 64.0214C48.9119 65.0877 49.7788 65.9524 50.8476 65.9524H102.186C103.255 65.9524 104.121 65.0877 104.121 64.0214C104.122 62.9547 103.255 62.0903 102.186 62.0903Z" fill="url(#paint4_linear_76_3994)"/>
<path d="M102.186 78.4956H50.8476C49.7788 78.4956 48.9119 79.3603 48.9119 80.4266C48.9119 81.4929 49.7788 82.3577 50.8476 82.3577H102.186C103.255 82.3577 104.121 81.4929 104.121 80.4266C104.122 79.3603 103.255 78.4956 102.186 78.4956Z" fill="url(#paint5_linear_76_3994)"/>
<path d="M102.186 94.9019H50.8476C49.7788 94.9019 48.9119 95.7666 48.9119 96.8329C48.9119 97.8992 49.7788 98.7631 50.8476 98.7631H102.186C103.255 98.7631 104.121 97.8992 104.121 96.8329C104.122 95.7666 103.255 94.9019 102.186 94.9019Z" fill="url(#paint6_linear_76_3994)"/>
<path d="M50.5003 74.9771H23.1633C20.9671 74.9771 19.187 76.7543 19.187 78.9471V117.959C19.187 120.152 20.9675 121.929 23.1633 121.929H50.5003C52.6961 121.929 54.4766 120.152 54.4766 117.959V78.9471C54.4766 76.7543 52.6961 74.9771 50.5003 74.9771Z" fill="url(#paint7_linear_76_3994)"/>
<path d="M128.319 14.0396H98.1247C96.7174 14.0396 95.5771 15.1784 95.5771 16.5831V30.7532C95.5771 32.1575 96.7174 33.2967 98.1247 33.2967H128.319C129.726 33.2967 130.867 32.1579 130.867 30.7532V16.5831C130.867 15.1788 129.726 14.0396 128.319 14.0396Z" fill="url(#paint8_linear_76_3994)"/>
<path d="M47.4499 94.4932H26.214C25.499 94.4932 24.9194 95.0723 24.9194 95.7862V95.7903C24.9194 96.5041 25.499 97.0828 26.214 97.0828H47.4499C48.1649 97.0828 48.7445 96.5041 48.7445 95.7903V95.7862C48.7445 95.0723 48.1649 94.4932 47.4499 94.4932Z" fill="url(#paint9_linear_76_3994)"/>
<path d="M47.4619 112.715H26.4085C25.6996 112.715 25.125 113.276 25.125 113.968V113.972C25.125 114.664 25.6996 115.225 26.4085 115.225H47.4619C48.1707 115.225 48.7454 114.664 48.7454 113.972V113.968C48.7454 113.276 48.1703 112.715 47.4619 112.715Z" fill="url(#paint10_linear_76_3994)"/>
<path d="M47.4619 103.182H26.4085C25.6996 103.182 25.125 103.743 25.125 104.434V104.438C25.125 105.13 25.6996 105.691 26.4085 105.691H47.4619C48.1707 105.691 48.7454 105.13 48.7454 104.438V104.434C48.7454 103.743 48.1703 103.182 47.4619 103.182Z" fill="url(#paint11_linear_76_3994)"/>
<path d="M33.9788 81.0015H27.7728C26.3981 81.0015 25.2839 82.1139 25.2839 83.4865V85.206C25.2839 86.5786 26.3981 87.6915 27.7728 87.6915H33.9788C35.3535 87.6915 36.4677 86.5786 36.4677 85.206V83.4865C36.4672 82.1139 35.353 81.0015 33.9788 81.0015Z" fill="url(#paint12_linear_76_3994)"/>
<path d="M103.029 26.5904C104.647 26.5904 105.958 25.281 105.958 23.6661C105.958 22.0508 104.647 20.7417 103.029 20.7417C101.411 20.7417 100.1 22.0508 100.1 23.6661C100.1 25.2806 101.411 26.5904 103.029 26.5904Z" fill="#81D5E7"/>
<path d="M113.496 26.5904C115.114 26.5904 116.425 25.281 116.425 23.6661C116.425 22.0508 115.114 20.7417 113.496 20.7417C111.878 20.7417 110.567 22.0508 110.567 23.6661C110.567 25.2806 111.878 26.5904 113.496 26.5904Z" fill="#81D5E7"/>
<path d="M123.963 26.5904C125.58 26.5904 126.892 25.281 126.892 23.6661C126.892 22.0508 125.58 20.7417 123.963 20.7417C122.345 20.7417 121.034 22.0508 121.034 23.6661C121.034 25.2806 122.345 26.5904 123.963 26.5904Z" fill="#81D5E7"/>
<path d="M116.022 96.3394L108.603 104.504L129.513 123.44L136.931 115.275L116.022 96.3394Z" fill="url(#paint13_linear_76_3994)"/>
<path fill-rule="evenodd" clip-rule="evenodd" d="M123.861 82.8246C123.861 99.9068 109.992 113.754 92.8831 113.754C75.7741 113.754 61.905 99.9068 61.905 82.8246C61.905 65.7433 75.7741 51.8955 92.8831 51.8955C109.992 51.8955 123.861 65.7429 123.861 82.8246ZM119.109 82.8246C119.109 97.2862 107.367 109.01 92.8827 109.01C78.398 109.01 66.6562 97.2866 66.6562 82.8246C66.6562 68.3631 78.398 56.6392 92.8827 56.6392C107.367 56.6392 119.109 68.3627 119.109 82.8246Z" fill="url(#paint14_linear_76_3994)"/>
<path d="M92.8835 109.009C107.368 109.009 119.11 97.286 119.11 82.8241C119.11 68.3626 107.368 56.6387 92.8835 56.6387C78.3988 56.6387 66.657 68.3621 66.657 82.8241C66.657 97.286 78.3988 109.009 92.8835 109.009Z" fill="url(#paint15_linear_76_3994)" fill-opacity="0.2"/>
<path d="M99.1846 82.8247L106.686 75.3194C107.388 74.5767 107.773 73.5899 107.758 72.5685C107.744 71.5468 107.331 70.5716 106.608 69.849C105.884 69.1269 104.907 68.7143 103.884 68.7003C102.861 68.6859 101.873 69.07 101.129 69.7715L93.6115 77.2772L86.1114 69.7715C85.7506 69.3903 85.3167 69.0853 84.8354 68.8738C84.3544 68.6624 83.8359 68.5503 83.31 68.5428C82.7849 68.5358 82.2631 68.6335 81.7764 68.8309C81.2892 69.028 80.8471 69.321 80.4756 69.692C80.1036 70.0633 79.8105 70.5048 79.6128 70.9911C79.4154 71.4767 79.3172 71.9977 79.3246 72.5224C79.332 73.0471 79.4447 73.5652 79.6561 74.0454C79.8671 74.5255 80.1725 74.9587 80.5548 75.3194L88.0681 82.8247L80.5548 90.3304C80.173 90.6906 79.8675 91.1238 79.6561 91.6044C79.4443 92.0846 79.332 92.6022 79.3246 93.1274C79.3172 93.6516 79.415 94.1726 79.6128 94.6586C79.8109 95.145 80.1036 95.5864 80.4756 95.9573C80.8471 96.3287 81.2892 96.6214 81.7764 96.8188C82.2635 97.0158 82.7849 97.1139 83.31 97.1065C83.8355 97.0991 84.3544 96.9865 84.8354 96.7755C85.3167 96.5649 85.7506 96.2599 86.1114 95.8778L93.6288 88.3725L101.146 95.8778C101.897 96.5381 102.871 96.888 103.871 96.8551C104.871 96.8229 105.821 96.4111 106.527 95.7034C107.233 94.9966 107.643 94.0465 107.673 93.0482C107.702 92.0504 107.349 91.0784 106.686 90.3308L99.1846 82.8247Z" fill="url(#paint16_linear_76_3994)"/>
<path d="M93.7503 100.007C103.933 100.007 112.187 98.7893 112.187 97.2874C112.187 95.7854 103.933 94.5679 93.7503 94.5679C83.5681 94.5679 75.3137 95.7854 75.3137 97.2874C75.3137 98.7893 83.5681 100.007 93.7503 100.007Z" fill="#EC5575" fill-opacity="0.56"/>
<path d="M73.4693 111.105L73.4763 120.587C73.4767 121.169 73.9486 121.64 74.5311 121.641L84.0284 121.648L74.5311 121.655C73.9486 121.655 73.4767 122.126 73.4763 122.708L73.4693 132.19L73.4627 122.708C73.4623 122.126 72.9904 121.655 72.4071 121.655L62.9102 121.648L72.4071 121.641C72.99 121.641 73.4618 121.169 73.4627 120.587L73.4693 111.105Z" fill="url(#paint17_linear_76_3994)"/>
<path d="M31.7566 14.7642L31.7632 24.2462C31.7637 24.8278 32.2359 25.2993 32.8184 25.3002L42.3158 25.3067L32.8184 25.3133C32.2359 25.3138 31.7637 25.7857 31.7632 26.3673L31.7566 35.8493L31.75 26.3673C31.7496 25.7857 31.2773 25.3142 30.6949 25.3133L21.1975 25.3067L30.6949 25.3002C31.2773 25.2997 31.7496 24.8278 31.75 24.2462L31.7566 14.7642Z" fill="url(#paint18_linear_76_3994)"/>
<path fill-rule="evenodd" clip-rule="evenodd" d="M75.0364 19.5957C76.0082 19.5957 76.7963 18.8092 76.7963 17.839C76.7963 16.8687 76.0082 16.0819 75.0364 16.0819C74.0647 16.0819 73.2766 16.8687 73.2766 17.839C73.2762 18.8096 74.0642 19.5957 75.0364 19.5957ZM75.0364 20.9138C76.7373 20.9138 78.1161 19.5367 78.1161 17.839C78.1161 16.1404 76.7368 14.7642 75.0364 14.7642C73.3352 14.7642 71.9568 16.1404 71.9568 17.839C71.9564 19.5371 73.3352 20.9138 75.0364 20.9138Z" fill="url(#paint19_linear_76_3994)"/>
<path d="M129.758 67.9788C129.591 67.3234 130.197 66.7328 130.849 66.9162L135.251 68.1511C135.903 68.3341 136.112 69.1531 135.627 69.6258L132.355 72.814C131.87 73.2864 131.056 73.058 130.888 72.4027L129.758 67.9788Z" fill="url(#paint20_linear_76_3994)"/>
<path d="M26.5812 60.435C27.238 60.2689 27.8283 60.8744 27.6442 61.5252L26.4016 65.9182C26.2175 66.569 25.3968 66.7767 24.9242 66.2924L21.7347 63.0214C21.262 62.5367 21.4924 61.7235 22.1488 61.5566L26.5812 60.435Z" fill="url(#paint21_linear_76_3994)"/>
<path d="M110.51 121.15C111.166 120.984 111.756 121.589 111.573 122.24L110.33 126.633C110.146 127.284 109.325 127.492 108.853 127.007L105.663 123.736C105.191 123.252 105.421 122.438 106.078 122.272L110.51 121.15Z" fill="url(#paint22_linear_76_3994)"/>
<path fill-rule="evenodd" clip-rule="evenodd" d="M133.836 45.186C134.808 45.186 135.596 44.3996 135.596 43.4293C135.596 42.4591 134.808 41.6722 133.836 41.6722C132.864 41.6722 132.076 42.4591 132.076 43.4293C132.076 44.3996 132.864 45.186 133.836 45.186ZM133.836 46.5041C135.537 46.5041 136.916 45.1271 136.916 43.4293C136.916 41.7307 135.536 40.3545 133.836 40.3545C132.135 40.3545 130.756 41.7307 130.756 43.4293C130.756 45.1275 132.135 46.5041 133.836 46.5041Z" fill="url(#paint23_linear_76_3994)"/>
<path d="M129.511 123.441L136.929 115.276L138.046 116.288C139.13 117.269 139.779 118.641 139.851 120.101C139.922 121.56 139.409 122.988 138.426 124.07C137.443 125.153 136.069 125.801 134.607 125.872C133.146 125.943 131.715 125.432 130.631 124.45L129.514 123.439L129.511 123.441Z" fill="#65C8DE"/>
<defs>
<linearGradient id="paint0_linear_76_3994" x1="76.8888" y1="-0.966805" x2="78.0656" y2="201.156" gradientUnits="userSpaceOnUse">
<stop stop-color="white" stop-opacity="0"/>
<stop offset="1" stop-color="#8EE2F4"/>
</linearGradient>
<linearGradient id="paint1_linear_76_3994" x1="37.3202" y1="32.2513" x2="115.719" y2="37.7881" gradientUnits="userSpaceOnUse">
<stop stop-color="#90E3F5"/>
<stop offset="1" stop-color="#65C8DE"/>
</linearGradient>
<linearGradient id="paint2_linear_76_3994" x1="35.3417" y1="72.0967" x2="148.419" y2="74.1102" gradientUnits="userSpaceOnUse">
<stop stop-color="white"/>
<stop offset="1" stop-color="#BCF3FF"/>
</linearGradient>
<linearGradient id="paint3_linear_76_3994" x1="46.577" y1="47.6149" x2="107.387" y2="47.6149" gradientUnits="userSpaceOnUse">
<stop stop-color="#65C8DE"/>
<stop offset="1" stop-color="#D2F7FF"/>
</linearGradient>
<linearGradient id="paint4_linear_76_3994" x1="46.577" y1="64.0211" x2="107.387" y2="64.0211" gradientUnits="userSpaceOnUse">
<stop stop-color="#65C8DE"/>
<stop offset="1" stop-color="#D2F7FF"/>
</linearGradient>
<linearGradient id="paint5_linear_76_3994" x1="46.577" y1="80.4266" x2="107.387" y2="80.4266" gradientUnits="userSpaceOnUse">
<stop stop-color="#65C8DE"/>
<stop offset="1" stop-color="#D2F7FF"/>
</linearGradient>
<linearGradient id="paint6_linear_76_3994" x1="46.577" y1="96.8325" x2="107.387" y2="96.8325" gradientUnits="userSpaceOnUse">
<stop stop-color="#65C8DE"/>
<stop offset="1" stop-color="#D2F7FF"/>
</linearGradient>
<linearGradient id="paint7_linear_76_3994" x1="19.2114" y1="97.0084" x2="86.8483" y2="102.572" gradientUnits="userSpaceOnUse">
<stop stop-color="white"/>
<stop offset="1" stop-color="#BCF3FF"/>
</linearGradient>
<linearGradient id="paint8_linear_76_3994" x1="94.6726" y1="23.1324" x2="145.627" y2="24.6088" gradientUnits="userSpaceOnUse">
<stop stop-color="white"/>
<stop offset="1" stop-color="#BCF3FF"/>
</linearGradient>
<linearGradient id="paint9_linear_76_3994" x1="51.5095" y1="95.7881" x2="22.8633" y2="95.7881" gradientUnits="userSpaceOnUse">
<stop stop-color="#D2F7FF"/>
<stop offset="1" stop-color="#65C8DE"/>
</linearGradient>
<linearGradient id="paint10_linear_76_3994" x1="51.4864" y1="113.97" x2="23.0867" y2="113.97" gradientUnits="userSpaceOnUse">
<stop stop-color="#D2F7FF"/>
<stop offset="1" stop-color="#65C8DE"/>
</linearGradient>
<linearGradient id="paint11_linear_76_3994" x1="51.4864" y1="104.436" x2="23.0867" y2="104.436" gradientUnits="userSpaceOnUse">
<stop stop-color="#D2F7FF"/>
<stop offset="1" stop-color="#65C8DE"/>
</linearGradient>
<linearGradient id="paint12_linear_76_3994" x1="44.2223" y1="84.3463" x2="23.8684" y2="84.3463" gradientUnits="userSpaceOnUse">
<stop offset="0.2438" stop-color="#D2F7FF"/>
<stop offset="1" stop-color="#6BCBE0"/>
</linearGradient>
<linearGradient id="paint13_linear_76_3994" x1="119.023" y1="113.99" x2="126.498" y2="105.778" gradientUnits="userSpaceOnUse">
<stop stop-color="#90E3F5"/>
<stop offset="1" stop-color="#65C8DE"/>
</linearGradient>
<linearGradient id="paint14_linear_76_3994" x1="61.728" y1="82.623" x2="124.091" y2="83.0282" gradientUnits="userSpaceOnUse">
<stop stop-color="#90E3F5"/>
<stop offset="1" stop-color="#65C8DE"/>
</linearGradient>
<linearGradient id="paint15_linear_76_3994" x1="84.0833" y1="60.0251" x2="110.439" y2="128.522" gradientUnits="userSpaceOnUse">
<stop stop-color="white"/>
<stop offset="1" stop-color="#D2F7FF"/>
</linearGradient>
<linearGradient id="paint16_linear_76_3994" x1="79.8087" y1="70.0928" x2="108.245" y2="96.7019" gradientUnits="userSpaceOnUse">
<stop stop-color="#FF698D"/>
<stop offset="1" stop-color="#FF3868"/>
</linearGradient>
<linearGradient id="paint17_linear_76_3994" x1="62.8498" y1="121.579" x2="84.1067" y2="121.717" gradientUnits="userSpaceOnUse">
<stop stop-color="#90E3F5"/>
<stop offset="1" stop-color="#65C8DE"/>
</linearGradient>
<linearGradient id="paint18_linear_76_3994" x1="21.1369" y1="25.2376" x2="42.3937" y2="25.376" gradientUnits="userSpaceOnUse">
<stop stop-color="#90E3F5"/>
<stop offset="1" stop-color="#65C8DE"/>
</linearGradient>
<linearGradient id="paint19_linear_76_3994" x1="71.9389" y1="17.819" x2="78.139" y2="17.8593" gradientUnits="userSpaceOnUse">
<stop stop-color="#90E3F5"/>
<stop offset="1" stop-color="#65C8DE"/>
</linearGradient>
<linearGradient id="paint20_linear_76_3994" x1="128.815" y1="72.2437" x2="135.184" y2="66.0985" gradientUnits="userSpaceOnUse">
<stop stop-color="#90E3F5"/>
<stop offset="1" stop-color="#65C8DE"/>
</linearGradient>
<linearGradient id="paint21_linear_76_3994" x1="22.3107" y1="59.4879" x2="28.4376" y2="65.8741" gradientUnits="userSpaceOnUse">
<stop stop-color="#90E3F5"/>
<stop offset="1" stop-color="#65C8DE"/>
</linearGradient>
<linearGradient id="paint22_linear_76_3994" x1="106.239" y1="120.203" x2="112.366" y2="126.589" gradientUnits="userSpaceOnUse">
<stop stop-color="#90E3F5"/>
<stop offset="1" stop-color="#65C8DE"/>
</linearGradient>
<linearGradient id="paint23_linear_76_3994" x1="130.739" y1="43.4093" x2="136.939" y2="43.4496" gradientUnits="userSpaceOnUse">
<stop stop-color="#90E3F5"/>
<stop offset="1" stop-color="#65C8DE"/>
</linearGradient>
</defs>
</svg>
