<svg width="20" height="24" viewBox="0 0 20 24" fill="none" xmlns="http://www.w3.org/2000/svg">
<path d="M9.99994 24C11.811 24 13.326 22.7089 13.674 21H6.32593C6.67401 22.7089 8.18903 24 9.99994 24Z" fill="#0D519A"/>
<path d="M17.5759 14.4959C17.5499 14.4959 17.5259 14.4999 17.4999 14.4999C13.0889 14.4999 9.50006 10.9111 9.50006 6.50006C9.50006 4.76697 10.06 3.16608 11.0001 1.85394V0.999939C11.0001 0.44696 10.552 0 9.99994 0C9.44806 0 9 0.44696 9 0.999939V2.08008C5.61292 2.56805 3 5.48108 3 9V11.788C3 13.767 2.133 15.635 0.611939 16.921C0.223022 17.254 0 17.738 0 18.2499C0 19.2151 0.784973 20.0001 1.74994 20.0001H18.2499C19.2151 20.0001 20.0001 19.2151 20.0001 18.2499C20.0001 17.738 19.777 17.254 19.3781 16.9131C18.59 16.246 17.9821 15.416 17.5759 14.4959Z" fill="#0D519A"/>
<path d="M2.42413 14.4959C2.45013 14.4959 2.47412 14.4999 2.50012 14.4999C6.91113 14.4999 8 10.911 8 6.5C8 4.76691 9.94006 3.16608 9 1.85394V0.999939C9 0.44696 9.44806 0 10.0001 0C10.552 0 11.0001 0.44696 11.0001 0.999939V2.08008C14.3871 2.56805 17.0001 5.48108 17.0001 9V11.788C17.0001 13.767 17.8671 15.635 19.3881 16.921C19.777 17.254 20.0001 17.738 20.0001 18.2499C20.0001 19.2151 19.2151 20.0001 18.2501 20.0001H1.75012C0.784973 20.0001 0 19.2151 0 18.2499C0 17.738 0.223023 17.254 0.622009 16.9131C1.4101 16.246 2.01801 15.416 2.42413 14.4959Z" fill="#0D519A"/>
</svg>
