<svg width="24" height="24" viewBox="0 0 24 24" fill="none" xmlns="http://www.w3.org/2000/svg">
<g clip-path="url(#clip0_283_1083)">
<path fill-rule="evenodd" clip-rule="evenodd" d="M4.125 0.75H19.875C21.7313 0.75 23.25 2.26875 23.25 4.125V19.875C23.25 21.7313 21.7313 23.25 19.875 23.25H19.3406V20.8205C19.3406 18.1298 17.4206 16.7362 15.0473 16.5141C14.6217 16.4742 14.2364 16.6486 13.9852 16.9945L13.1606 18.1303L11.9644 19.7784L10.7681 18.1303L9.945 16.9964C9.69234 16.6481 9.30328 16.4737 8.87531 16.5169C6.53344 16.7517 4.65891 18.1912 4.65891 20.8205V23.25H4.125C2.26875 23.25 0.75 21.7313 0.75 19.875V4.125C0.75 2.26875 2.26875 0.75 4.125 0.75ZM12 7.11469C9.99328 7.11469 8.36672 8.74172 8.36672 10.748C8.36672 12.7547 9.99328 14.3812 12 14.3812C14.0067 14.3812 15.6333 12.7547 15.6333 10.748C15.6333 8.74172 14.0067 7.11469 12 7.11469Z" fill="#0D519A"/>
</g>
<defs>
<clipPath id="clip0_283_1083">
<rect width="24" height="24" fill="white"/>
</clipPath>
</defs>
</svg>
