<svg width="24" height="24" viewBox="0 0 24 24" fill="none" xmlns="http://www.w3.org/2000/svg">
<g clip-path="url(#clip0_284_1105)">
<path d="M17.3111 3.34558C17.3111 2.77745 16.8503 2.31714 16.2822 2.31714H14.8577V3.25745C14.8577 3.75948 14.4508 4.16636 13.9488 4.16636C13.4472 4.16636 13.0403 3.75948 13.0403 3.25745V2.31714H9.99253V3.25745C9.99253 3.75948 9.58612 4.16636 9.08409 4.16636C8.58206 4.16636 8.17565 3.75948 8.17565 3.25745V2.31714H5.12784V3.25745C5.12784 3.75948 4.72096 4.16636 4.2194 4.16636C3.71737 4.16636 3.31049 3.75948 3.31049 3.25745V2.31714H1.88596C1.31784 2.31714 0.857056 2.77745 0.857056 3.34558V6.53758H17.311L17.3111 3.34558Z" stroke="#19123C" stroke-width="1.3" stroke-miterlimit="10" stroke-linecap="round" stroke-linejoin="round"/>
<path d="M18.984 14.4242C17.3969 14.2832 15.9277 14.9729 15.0055 16.1337L13.0726 16.1317L14.1479 17.8853C14.0944 18.1055 14.0566 18.3323 14.0359 18.5649C13.8129 21.0747 15.6668 23.2901 18.1766 23.5131C20.6864 23.736 22.9018 21.8822 23.1248 19.3724C23.3477 16.8625 21.4939 14.6472 18.984 14.4242Z" stroke="#19123C" stroke-width="1.3" stroke-miterlimit="10" stroke-linecap="round" stroke-linejoin="round"/>
<path d="M17.181 17.8954C17.181 17.8316 17.1854 17.7689 17.194 17.7075C17.2915 17.0087 17.9247 16.4815 18.6653 16.5543C19.3117 16.6178 19.8266 17.1484 19.873 17.7963C19.9166 18.4036 19.5564 18.9341 19.0332 19.1456C18.7247 19.2703 18.5288 19.5773 18.5288 19.9101" stroke="#19123C" stroke-width="1.3" stroke-miterlimit="10" stroke-linecap="round" stroke-linejoin="round"/>
<circle cx="18.5288" cy="21.5203" r="0.5625" fill="#19123C"/>
<path d="M9.42053 13.9729H13.6721" stroke="#19123C" stroke-width="1.3" stroke-miterlimit="10" stroke-linecap="round" stroke-linejoin="round"/>
<path d="M9.42053 15.9697H10.7559" stroke="#19123C" stroke-width="1.3" stroke-miterlimit="10" stroke-linecap="round" stroke-linejoin="round"/>
<path d="M9.42053 18.8389H11.6869" stroke="#19123C" stroke-width="1.3" stroke-miterlimit="10" stroke-linecap="round" stroke-linejoin="round"/>
<path d="M9.42053 20.8354H11.9974" stroke="#19123C" stroke-width="1.3" stroke-miterlimit="10" stroke-linecap="round" stroke-linejoin="round"/>
<path d="M17.311 12.9195L17.3106 14.5857C16.3952 14.851 15.5903 15.3976 15.0053 16.134L13.0727 16.1317L14.148 17.8853C14.0946 18.1056 14.0566 18.3324 14.036 18.5649C13.8128 21.0746 15.6667 23.2904 18.1764 23.5131C18.3138 23.5253 18.4502 23.5314 18.5856 23.5314H1.88596C1.31784 23.5314 0.857056 23.0706 0.857056 22.5024V3.34558C0.857056 2.77745 1.31784 2.31714 1.88596 2.31714H3.31049V3.25745C3.31049 3.75948 3.71737 4.16636 4.2194 4.16636C4.72096 4.16636 5.12784 3.75948 5.12784 3.25745V2.31714H8.17565V3.25745C8.17565 3.75948 8.58206 4.16636 9.08409 4.16636C9.58612 4.16636 9.99252 3.75948 9.99252 3.25745V2.31714H13.0403V3.25745C13.0403 3.75948 13.4472 4.16636 13.9488 4.16636C14.4508 4.16636 14.8577 3.75948 14.8577 3.25745V2.31714H16.2822C16.8503 2.31714 17.3111 2.77745 17.3111 3.34558L17.311 8.79648" stroke="#19123C" stroke-width="1.3" stroke-miterlimit="10" stroke-linecap="round" stroke-linejoin="round"/>
<path d="M6.69503 13.6729H4.09821V16.2697H6.69503V13.6729Z" stroke="#19123C" stroke-width="1.3" stroke-miterlimit="10" stroke-linecap="round" stroke-linejoin="round"/>
<path d="M9.42053 9.03394H13.6721" stroke="#19123C" stroke-width="1.3" stroke-miterlimit="10" stroke-linecap="round" stroke-linejoin="round"/>
<path d="M9.42053 11.0308H11.3119" stroke="#19123C" stroke-width="1.3" stroke-miterlimit="10" stroke-linecap="round" stroke-linejoin="round"/>
<path d="M6.69503 8.73389H4.09821V11.3307H6.69503V8.73389Z" stroke="#19123C" stroke-width="1.3" stroke-miterlimit="10" stroke-linecap="round" stroke-linejoin="round"/>
<path d="M6.69503 18.5881H4.09821V21.185H6.69503V18.5881Z" stroke="#19123C" stroke-width="1.3" stroke-miterlimit="10" stroke-linecap="round" stroke-linejoin="round"/>
<path d="M4.21929 4.16611C3.71745 4.16611 3.31067 3.75928 3.31067 3.25748V1.37738C3.31062 0.875578 3.71745 0.46875 4.21925 0.46875C4.72109 0.46875 5.12787 0.875578 5.12787 1.37738V3.25744C5.12792 3.75928 4.72109 4.16611 4.21929 4.16611Z" stroke="#19123C" stroke-width="1.3" stroke-miterlimit="10" stroke-linecap="round" stroke-linejoin="round"/>
<path d="M13.949 4.16611C13.4472 4.16611 13.0404 3.75928 13.0404 3.25748V1.37738C13.0404 0.875531 13.4472 0.46875 13.949 0.46875C14.4509 0.46875 14.8577 0.875578 14.8577 1.37738V3.25744C14.8577 3.75928 14.4509 4.16611 13.949 4.16611Z" stroke="#19123C" stroke-width="1.3" stroke-miterlimit="10" stroke-linecap="round" stroke-linejoin="round"/>
<path d="M9.08416 4.16611C8.58232 4.16611 8.17554 3.75928 8.17554 3.25748V1.37738C8.17554 0.875531 8.58237 0.46875 9.08416 0.46875C9.58601 0.46875 9.99279 0.875578 9.99279 1.37738V3.25744C9.99279 3.75928 9.58601 4.16611 9.08416 4.16611Z" stroke="#19123C" stroke-width="1.3" stroke-miterlimit="10" stroke-linecap="round" stroke-linejoin="round"/>
<circle cx="17.311" cy="10.8579" r="0.5625" fill="#19123C"/>
</g>
<defs>
<clipPath id="clip0_284_1105">
<rect width="24" height="24" fill="white"/>
</clipPath>
</defs>
</svg>
